<svg xmlns="http://www.w3.org/2000/svg" width="760" height="560">
<style>text { font-family: Arial, Helvetica, sans-serif; font-size: 12px; } .title { font-size: 18px; } .label { font-size: 14px; }</style>
<text class="title" x="380.0" y="35" text-anchor="middle">Representative resource usage: average_direct</text>
<rect x="90" y="70" width="560" height="390" fill="white" stroke="#333" />
<line x1="202.0" y1="70" x2="202.0" y2="460" stroke="#e6e6e6" />
<line x1="90" y1="148.0" x2="650" y2="148.0" stroke="#eeeeee" />
<line x1="314.0" y1="70" x2="314.0" y2="460" stroke="#e6e6e6" />
<line x1="90" y1="226.0" x2="650" y2="226.0" stroke="#eeeeee" />
<line x1="426.0" y1="70" x2="426.0" y2="460" stroke="#e6e6e6" />
<line x1="90" y1="304.0" x2="650" y2="304.0" stroke="#eeeeee" />
<line x1="538.0" y1="70" x2="538.0" y2="460" stroke="#e6e6e6" />
<line x1="90" y1="382.0" x2="650" y2="382.0" stroke="#eeeeee" />
<polygon points="90,460 90.0,460.0 650.0,460.0 650,460" fill="#9bbad0" opacity="0.85" />
<polyline points="90.0,460.0 650.0,460.0" fill="none" stroke="#0a27ff" stroke-width="2.5" />
<line x1="90" y1="460.0" x2="650" y2="460.0" stroke="#ff6666" stroke-width="1.5" stroke-dasharray="6,4" />
<line x1="90" y1="70" x2="650" y2="70" stroke="#f4c061" stroke-width="1.2" stroke-dasharray="3,4" />
<text x="510" y="92" class="label">Avg: 0.0%</text>
<text x="510" y="114" class="label">Max: 100.0%</text>
<rect x="420" y="180" width="190" height="94" rx="6" fill="#f7ecd2" stroke="#8a7d63" />
<text x="432" y="206" class="label">Total EPR Capacity: 8</text>
<text x="432" y="230" class="label">Peak Occupied: 0</text>
<text x="432" y="254" class="label">Avg Occupied: 0.0</text>
<text x="76" y="464.0" text-anchor="end" class="label">0</text>
<text x="76" y="386.0" text-anchor="end" class="label">20</text>
<text x="76" y="308.0" text-anchor="end" class="label">40</text>
<text x="76" y="230.0" text-anchor="end" class="label">60</text>
<text x="76" y="152.0" text-anchor="end" class="label">80</text>
<text x="76" y="74.0" text-anchor="end" class="label">100</text>
<text x="90.0" y="486" text-anchor="middle" class="label">1</text>
<text x="650.0" y="486" text-anchor="middle" class="label">2</text>
<text x="380.0" y="515" text-anchor="middle" class="label">Time Slot</text>
<text x="28" y="265.0" transform="rotate(-90 28,265.0)" text-anchor="middle" class="label">EPR Utilization Ratio (%)</text>
</svg>