<svg xmlns="http://www.w3.org/2000/svg" width="1100" height="588">
<style>text { font-family: monospace; font-size: 12px; } .title { font-size: 18px; font-weight: bold; }</style>
<text class="title" x="550.0" y="28" text-anchor="middle">Representative schedule: greedy_unified</text>
<text x="160" y="75" text-anchor="end">gate:g0:local</text>
<rect x="170.0" y="60.0" width="44.5" height="16" fill="#4E79A7" />
<text x="160" y="101" text-anchor="end">collective_batch:batch_0</text>
<rect x="214.5" y="86.0" width="4.0" height="16" fill="#76B7B2" />
<text x="160" y="127" text-anchor="end">intra_rack_generation:epr_0</text>
<rect x="214.5" y="112.0" width="89.0" height="16" fill="#59A14F" />
<text x="160" y="153" text-anchor="end">intra_rack_generation:epr_1</text>
<rect x="303.5" y="138.0" width="89.0" height="16" fill="#59A14F" />
<text x="160" y="179" text-anchor="end">distillation:epr_2</text>
<rect x="392.5" y="164.0" width="89.0" height="16" fill="#B07AA1" />
<text x="160" y="205" text-anchor="end">consume_epr:epr_2</text>
<rect x="481.5" y="190.0" width="4.0" height="16" fill="#9C755F" />
<text x="160" y="231" text-anchor="end">gate:g1:distilled</text>
<rect x="481.5" y="216.0" width="44.5" height="16" fill="#4E79A7" />
<text x="160" y="257" text-anchor="end">collective_batch:batch_1</text>
<rect x="526.0" y="242.0" width="4.0" height="16" fill="#76B7B2" />
<text x="160" y="283" text-anchor="end">intra_rack_generation:epr_3</text>
<rect x="526.0" y="268.0" width="89.0" height="16" fill="#59A14F" />
<text x="160" y="309" text-anchor="end">intra_rack_generation:epr_4</text>
<rect x="615.0" y="294.0" width="89.0" height="16" fill="#59A14F" />
<text x="160" y="335" text-anchor="end">distillation:epr_5</text>
<rect x="704.0" y="320.0" width="89.0" height="16" fill="#B07AA1" />
<text x="160" y="361" text-anchor="end">consume_epr:epr_5</text>
<rect x="793.0" y="346.0" width="4.0" height="16" fill="#9C755F" />
<text x="160" y="387" text-anchor="end">gate:g2:distilled</text>
<rect x="793.0" y="372.0" width="44.5" height="16" fill="#4E79A7" />
<text x="160" y="413" text-anchor="end">gate:g3:local</text>
<rect x="837.5" y="398.0" width="44.5" height="16" fill="#4E79A7" />
<text x="160" y="439" text-anchor="end">intra_rack_generation:epr_6</text>
<rect x="882.0" y="424.0" width="89.0" height="16" fill="#59A14F" />
<text x="160" y="465" text-anchor="end">consume_epr:epr_6</text>
<rect x="971.0" y="450.0" width="4.0" height="16" fill="#9C755F" />
<text x="160" y="491" text-anchor="end">gate:g4:collective</text>
<rect x="971.0" y="476.0" width="44.5" height="16" fill="#4E79A7" />
<text x="160" y="517" text-anchor="end">gate:g5:local</text>
<rect x="1015.5" y="502.0" width="44.5" height="16" fill="#4E79A7" />
<line x1="170.0" y1="52" x2="170.0" y2="558" stroke="#cccccc" />
<text x="170.0" y="578" text-anchor="middle">0.0</text>
<line x1="348.0" y1="52" x2="348.0" y2="558" stroke="#cccccc" />
<text x="348.0" y="578" text-anchor="middle">4.0</text>
<line x1="526.0" y1="52" x2="526.0" y2="558" stroke="#cccccc" />
<text x="526.0" y="578" text-anchor="middle">8.0</text>
<line x1="704.0" y1="52" x2="704.0" y2="558" stroke="#cccccc" />
<text x="704.0" y="578" text-anchor="middle">12.0</text>
<line x1="882.0" y1="52" x2="882.0" y2="558" stroke="#cccccc" />
<text x="882.0" y="578" text-anchor="middle">16.0</text>
<line x1="1060.0" y1="52" x2="1060.0" y2="558" stroke="#cccccc" />
<text x="1060.0" y="578" text-anchor="middle">20.0</text>
</svg>