<svg xmlns="http://www.w3.org/2000/svg" width="900" height="420">
<style>text { font-family: monospace; font-size: 12px; } .title { font-size: 18px; font-weight: bold; }</style>
<text class="title" x="450.0" y="30" text-anchor="middle">Ablation runtime comparison</text>
<line x1="90" y1="300" x2="870" y2="300" stroke="black" />
<line x1="90" y1="60" x2="90" y2="300" stroke="black" />
<rect x="100.0" y="60.0" width="175.0" height="240.0" fill="#4E79A7" />
<text x="187.5" y="316" text-anchor="end" transform="rotate(-35 187.5,316)">full</text>
<text x="187.5" y="72.0" text-anchor="middle">87.00</text>
<rect x="295.0" y="60.0" width="175.0" height="240.0" fill="#F28E2B" />
<text x="382.5" y="316" text-anchor="end" transform="rotate(-35 382.5,316)">no_split</text>
<text x="382.5" y="72.0" text-anchor="middle">87.00</text>
<rect x="490.0" y="60.0" width="175.0" height="240.0" fill="#E15759" />
<text x="577.5" y="316" text-anchor="end" transform="rotate(-35 577.5,316)">no_collective</text>
<text x="577.5" y="72.0" text-anchor="middle">87.00</text>
<rect x="685.0" y="175.9" width="175.0" height="124.1" fill="#76B7B2" />
<text x="772.5" y="316" text-anchor="end" transform="rotate(-35 772.5,316)">no_distill</text>
<text x="772.5" y="169.9" text-anchor="middle">45.00</text>
<line x1="85" y1="300.0" x2="90" y2="300.0" stroke="black" />
<text x="80" y="304.0" text-anchor="end">0.0</text>
<line x1="85" y1="240.0" x2="90" y2="240.0" stroke="black" />
<text x="80" y="244.0" text-anchor="end">21.8</text>
<line x1="85" y1="180.0" x2="90" y2="180.0" stroke="black" />
<text x="80" y="184.0" text-anchor="end">43.5</text>
<line x1="85" y1="120.0" x2="90" y2="120.0" stroke="black" />
<text x="80" y="124.0" text-anchor="end">65.2</text>
<line x1="85" y1="60.0" x2="90" y2="60.0" stroke="black" />
<text x="80" y="64.0" text-anchor="end">87.0</text>
</svg>