<svg xmlns="http://www.w3.org/2000/svg" width="1200" height="420">
<style>text {font-family: Arial, Helvetica, sans-serif; font-size: 12px;} .title {font-family: Arial, Helvetica, sans-serif; font-size: 16px; font-weight: bold;} .subtitle {font-family: Arial, Helvetica, sans-serif; font-size: 13px; font-weight: bold;}</style>
<text class="title" x="600.0" y="24" text-anchor="middle">Fig. 9 style: Algorithm-level comparison across workload scales</text>
<rect x="50" y="70" width="500" height="280" fill="white" stroke="#333" />
<line x1="50" y1="126.0" x2="550" y2="126.0" stroke="#e5e5e5" />
<line x1="50" y1="182.0" x2="550" y2="182.0" stroke="#e5e5e5" />
<line x1="50" y1="238.0" x2="550" y2="238.0" stroke="#e5e5e5" />
<line x1="50" y1="294.0" x2="550" y2="294.0" stroke="#e5e5e5" />
<text class="subtitle" x="300.0" y="62" text-anchor="middle">Objective value comparison</text>
<text x="300.0" y="378" text-anchor="middle">Problem scale</text>
<text x="8" y="210.0" transform="rotate(-90 8,210.0)" text-anchor="middle">Objective</text>
<text x="112.5" y="364" text-anchor="middle">small</text>
<rect x="62.5" y="301.2" width="25.0" height="48.8" fill="#4E79A7" />
<rect x="93.8" y="205.1" width="25.0" height="144.9" fill="#F28E2B" />
<rect x="125.0" y="241.3" width="25.0" height="108.7" fill="#59A14F" />
<text x="237.5" y="364" text-anchor="middle">medium</text>
<rect x="187.5" y="268.1" width="25.0" height="81.9" fill="#4E79A7" />
<rect x="218.8" y="175.2" width="25.0" height="174.8" fill="#F28E2B" />
<rect x="250.0" y="165.7" width="25.0" height="184.3" fill="#59A14F" />
<text x="362.5" y="364" text-anchor="middle">large</text>
<rect x="312.5" y="271.2" width="25.0" height="78.8" fill="#4E79A7" />
<rect x="343.8" y="146.8" width="25.0" height="203.2" fill="#F28E2B" />
<rect x="375.0" y="135.8" width="25.0" height="214.2" fill="#59A14F" />
<text x="487.5" y="364" text-anchor="middle">very_large</text>
<rect x="437.5" y="249.2" width="25.0" height="100.8" fill="#4E79A7" />
<rect x="468.8" y="113.8" width="25.0" height="236.2" fill="#F28E2B" />
<rect x="500.0" y="98.0" width="25.0" height="252.0" fill="#59A14F" />
<rect x="410" y="74" width="12" height="12" fill="#4E79A7" />
<text x="428" y="84">full_method</text>
<rect x="410" y="92" width="12" height="12" fill="#F28E2B" />
<text x="428" y="102">random_direct</text>
<rect x="410" y="110" width="12" height="12" fill="#59A14F" />
<text x="428" y="120">stagewise_direct</text>
<rect x="640" y="70" width="500" height="280" fill="white" stroke="#333" />
<line x1="640" y1="126.0" x2="1140" y2="126.0" stroke="#e5e5e5" />
<line x1="640" y1="182.0" x2="1140" y2="182.0" stroke="#e5e5e5" />
<line x1="640" y1="238.0" x2="1140" y2="238.0" stroke="#e5e5e5" />
<line x1="640" y1="294.0" x2="1140" y2="294.0" stroke="#e5e5e5" />
<text class="subtitle" x="890.0" y="62" text-anchor="middle">Algorithm execution time comparison</text>
<text x="890.0" y="378" text-anchor="middle">Problem scale</text>
<text x="598" y="210.0" transform="rotate(-90 598,210.0)" text-anchor="middle">Compilation time (s)</text>
<text x="702.5" y="364" text-anchor="middle">small</text>
<rect x="652.5" y="202.9" width="25.0" height="147.1" fill="#4E79A7" />
<rect x="683.8" y="349.8" width="25.0" height="0.2" fill="#F28E2B" />
<rect x="715.0" y="349.8" width="25.0" height="0.2" fill="#59A14F" />
<text x="827.5" y="364" text-anchor="middle">medium</text>
<rect x="777.5" y="145.0" width="25.0" height="205.0" fill="#4E79A7" />
<rect x="808.8" y="349.8" width="25.0" height="0.2" fill="#F28E2B" />
<rect x="840.0" y="349.8" width="25.0" height="0.2" fill="#59A14F" />
<text x="952.5" y="364" text-anchor="middle">large</text>
<rect x="902.5" y="228.3" width="25.0" height="121.7" fill="#4E79A7" />
<rect x="933.8" y="349.8" width="25.0" height="0.2" fill="#F28E2B" />
<rect x="965.0" y="349.8" width="25.0" height="0.2" fill="#59A14F" />
<text x="1077.5" y="364" text-anchor="middle">very_large</text>
<rect x="1027.5" y="98.0" width="25.0" height="252.0" fill="#4E79A7" />
<rect x="1058.8" y="349.8" width="25.0" height="0.2" fill="#F28E2B" />
<rect x="1090.0" y="349.8" width="25.0" height="0.2" fill="#59A14F" />
<rect x="1000" y="74" width="12" height="12" fill="#4E79A7" />
<text x="1018" y="84">full_method</text>
<rect x="1000" y="92" width="12" height="12" fill="#F28E2B" />
<text x="1018" y="102">random_direct</text>
<rect x="1000" y="110" width="12" height="12" fill="#59A14F" />
<text x="1018" y="120">stagewise_direct</text>
</svg>